<mxfile host="Electron" modified="2024-10-28T05:54:07.912Z" agent="Mozilla/5.0 (Windows NT 10.0; Win64; x64) AppleWebKit/537.36 (KHTML, like Gecko) draw.io/24.6.4 Chrome/124.0.6367.207 Electron/30.0.6 Safari/537.36" etag="hB0tAO9xcIAYjSEZ_HhF" version="24.6.4" type="device">
  <diagram name="第 1 页" id="XsR3ncLrPXC3dTy0FcWf">
    <mxGraphModel dx="1050" dy="629" grid="1" gridSize="10" guides="1" tooltips="1" connect="1" arrows="1" fold="1" page="1" pageScale="1" pageWidth="827" pageHeight="1169" math="0" shadow="0">
      <root>
        <mxCell id="0" />
        <mxCell id="1" parent="0" />
        <mxCell id="FKfBZnsISCD7llRRQSE3-6" style="edgeStyle=orthogonalEdgeStyle;rounded=0;orthogonalLoop=1;jettySize=auto;html=1;exitX=0.5;exitY=1;exitDx=0;exitDy=0;" edge="1" parent="1" source="FKfBZnsISCD7llRRQSE3-1" target="FKfBZnsISCD7llRRQSE3-2">
          <mxGeometry relative="1" as="geometry" />
        </mxCell>
        <mxCell id="FKfBZnsISCD7llRRQSE3-1" value="Iterable 迭代能力" style="rounded=1;whiteSpace=wrap;html=1;" vertex="1" parent="1">
          <mxGeometry x="422" y="70" width="120" height="60" as="geometry" />
        </mxCell>
        <mxCell id="FKfBZnsISCD7llRRQSE3-8" style="edgeStyle=none;rounded=0;orthogonalLoop=1;jettySize=auto;html=1;exitX=0.5;exitY=1;exitDx=0;exitDy=0;entryX=0.5;entryY=0;entryDx=0;entryDy=0;" edge="1" parent="1" source="FKfBZnsISCD7llRRQSE3-2" target="FKfBZnsISCD7llRRQSE3-3">
          <mxGeometry relative="1" as="geometry" />
        </mxCell>
        <mxCell id="FKfBZnsISCD7llRRQSE3-9" style="edgeStyle=none;rounded=0;orthogonalLoop=1;jettySize=auto;html=1;exitX=0.5;exitY=1;exitDx=0;exitDy=0;entryX=0.5;entryY=0;entryDx=0;entryDy=0;" edge="1" parent="1" source="FKfBZnsISCD7llRRQSE3-2" target="FKfBZnsISCD7llRRQSE3-5">
          <mxGeometry relative="1" as="geometry" />
        </mxCell>
        <mxCell id="FKfBZnsISCD7llRRQSE3-2" value="Collection" style="rounded=1;whiteSpace=wrap;html=1;" vertex="1" parent="1">
          <mxGeometry x="422" y="170" width="120" height="60" as="geometry" />
        </mxCell>
        <mxCell id="FKfBZnsISCD7llRRQSE3-10" style="edgeStyle=none;rounded=0;orthogonalLoop=1;jettySize=auto;html=1;exitX=0.5;exitY=1;exitDx=0;exitDy=0;entryX=0.5;entryY=0;entryDx=0;entryDy=0;" edge="1" parent="1" source="FKfBZnsISCD7llRRQSE3-3" target="FKfBZnsISCD7llRRQSE3-4">
          <mxGeometry relative="1" as="geometry" />
        </mxCell>
        <mxCell id="FKfBZnsISCD7llRRQSE3-3" value="AbstractCollection" style="rounded=1;whiteSpace=wrap;html=1;fillColor=#ffe6cc;strokeColor=#d79b00;" vertex="1" parent="1">
          <mxGeometry x="320" y="290" width="130" height="60" as="geometry" />
        </mxCell>
        <mxCell id="FKfBZnsISCD7llRRQSE3-18" style="edgeStyle=none;rounded=0;orthogonalLoop=1;jettySize=auto;html=1;exitX=0.5;exitY=1;exitDx=0;exitDy=0;" edge="1" parent="1" source="FKfBZnsISCD7llRRQSE3-4" target="FKfBZnsISCD7llRRQSE3-15">
          <mxGeometry relative="1" as="geometry" />
        </mxCell>
        <mxCell id="FKfBZnsISCD7llRRQSE3-20" style="edgeStyle=none;rounded=0;orthogonalLoop=1;jettySize=auto;html=1;exitX=0.5;exitY=1;exitDx=0;exitDy=0;entryX=0.5;entryY=0;entryDx=0;entryDy=0;" edge="1" parent="1" source="FKfBZnsISCD7llRRQSE3-4" target="FKfBZnsISCD7llRRQSE3-17">
          <mxGeometry relative="1" as="geometry" />
        </mxCell>
        <mxCell id="FKfBZnsISCD7llRRQSE3-25" style="edgeStyle=none;rounded=0;orthogonalLoop=1;jettySize=auto;html=1;exitX=0.5;exitY=1;exitDx=0;exitDy=0;entryX=0.5;entryY=0;entryDx=0;entryDy=0;" edge="1" parent="1" source="FKfBZnsISCD7llRRQSE3-4" target="FKfBZnsISCD7llRRQSE3-22">
          <mxGeometry relative="1" as="geometry" />
        </mxCell>
        <mxCell id="FKfBZnsISCD7llRRQSE3-4" value="AbstractSet" style="rounded=1;whiteSpace=wrap;html=1;fillColor=#ffe6cc;strokeColor=#d79b00;" vertex="1" parent="1">
          <mxGeometry x="422" y="400" width="120" height="60" as="geometry" />
        </mxCell>
        <mxCell id="FKfBZnsISCD7llRRQSE3-12" style="edgeStyle=none;rounded=0;orthogonalLoop=1;jettySize=auto;html=1;exitX=0.5;exitY=1;exitDx=0;exitDy=0;entryX=0.5;entryY=0;entryDx=0;entryDy=0;" edge="1" parent="1" source="FKfBZnsISCD7llRRQSE3-5" target="FKfBZnsISCD7llRRQSE3-4">
          <mxGeometry relative="1" as="geometry" />
        </mxCell>
        <mxCell id="FKfBZnsISCD7llRRQSE3-14" style="edgeStyle=none;rounded=0;orthogonalLoop=1;jettySize=auto;html=1;exitX=0.5;exitY=1;exitDx=0;exitDy=0;entryX=0.5;entryY=0;entryDx=0;entryDy=0;" edge="1" parent="1" source="FKfBZnsISCD7llRRQSE3-5" target="FKfBZnsISCD7llRRQSE3-13">
          <mxGeometry relative="1" as="geometry" />
        </mxCell>
        <mxCell id="FKfBZnsISCD7llRRQSE3-5" value="Set" style="rounded=1;whiteSpace=wrap;html=1;" vertex="1" parent="1">
          <mxGeometry x="530" y="290" width="100" height="60" as="geometry" />
        </mxCell>
        <mxCell id="FKfBZnsISCD7llRRQSE3-21" style="edgeStyle=none;rounded=0;orthogonalLoop=1;jettySize=auto;html=1;exitX=0.5;exitY=1;exitDx=0;exitDy=0;entryX=0.5;entryY=0;entryDx=0;entryDy=0;" edge="1" parent="1" source="FKfBZnsISCD7llRRQSE3-13" target="FKfBZnsISCD7llRRQSE3-17">
          <mxGeometry relative="1" as="geometry" />
        </mxCell>
        <mxCell id="FKfBZnsISCD7llRRQSE3-26" style="edgeStyle=none;rounded=0;orthogonalLoop=1;jettySize=auto;html=1;exitX=0.5;exitY=1;exitDx=0;exitDy=0;entryX=0.5;entryY=0;entryDx=0;entryDy=0;" edge="1" parent="1" source="FKfBZnsISCD7llRRQSE3-13" target="FKfBZnsISCD7llRRQSE3-22">
          <mxGeometry relative="1" as="geometry" />
        </mxCell>
        <mxCell id="FKfBZnsISCD7llRRQSE3-13" value="SortedSet 有序" style="rounded=1;whiteSpace=wrap;html=1;" vertex="1" parent="1">
          <mxGeometry x="640" y="400" width="120" height="60" as="geometry" />
        </mxCell>
        <mxCell id="FKfBZnsISCD7llRRQSE3-19" style="edgeStyle=none;rounded=0;orthogonalLoop=1;jettySize=auto;html=1;exitX=0.5;exitY=1;exitDx=0;exitDy=0;entryX=0.5;entryY=0;entryDx=0;entryDy=0;" edge="1" parent="1" source="FKfBZnsISCD7llRRQSE3-15" target="FKfBZnsISCD7llRRQSE3-16">
          <mxGeometry relative="1" as="geometry" />
        </mxCell>
        <mxCell id="FKfBZnsISCD7llRRQSE3-15" value="HashSet&lt;br&gt;借助 HashMap 实现" style="rounded=1;whiteSpace=wrap;html=1;fillColor=#d5e8d4;strokeColor=#82b366;" vertex="1" parent="1">
          <mxGeometry x="348.5" y="550" width="130" height="60" as="geometry" />
        </mxCell>
        <mxCell id="FKfBZnsISCD7llRRQSE3-16" value="Linked&lt;span style=&quot;background-color: initial;&quot;&gt;HashSet&lt;br&gt;借助 LinkedHashMap 实现&lt;/span&gt;" style="rounded=1;whiteSpace=wrap;html=1;fillColor=#d5e8d4;strokeColor=#82b366;" vertex="1" parent="1">
          <mxGeometry x="330" y="660" width="168" height="60" as="geometry" />
        </mxCell>
        <mxCell id="FKfBZnsISCD7llRRQSE3-17" value="TreeSet&lt;br&gt;借助 TreeMap 实现" style="rounded=1;whiteSpace=wrap;html=1;fillColor=#d5e8d4;strokeColor=#82b366;" vertex="1" parent="1">
          <mxGeometry x="510" y="550" width="130" height="60" as="geometry" />
        </mxCell>
        <mxCell id="FKfBZnsISCD7llRRQSE3-22" value="ConcurrentSkipListSet&lt;br&gt;借助&amp;nbsp;ConcurrentSkipListMap 实现" style="rounded=1;whiteSpace=wrap;html=1;fillColor=#d5e8d4;strokeColor=#82b366;" vertex="1" parent="1">
          <mxGeometry x="670" y="550" width="200" height="60" as="geometry" />
        </mxCell>
        <mxCell id="FKfBZnsISCD7llRRQSE3-23" value="CopyOnWriteArraySet&lt;br&gt;借助&amp;nbsp;CopyOnWriteArrayList 实现" style="rounded=1;whiteSpace=wrap;html=1;fillColor=#d5e8d4;strokeColor=#82b366;" vertex="1" parent="1">
          <mxGeometry x="130" y="550" width="190" height="60" as="geometry" />
        </mxCell>
        <mxCell id="FKfBZnsISCD7llRRQSE3-24" style="edgeStyle=none;rounded=0;orthogonalLoop=1;jettySize=auto;html=1;exitX=0.5;exitY=1;exitDx=0;exitDy=0;entryX=0.445;entryY=0.02;entryDx=0;entryDy=0;entryPerimeter=0;" edge="1" parent="1" source="FKfBZnsISCD7llRRQSE3-4" target="FKfBZnsISCD7llRRQSE3-23">
          <mxGeometry relative="1" as="geometry" />
        </mxCell>
      </root>
    </mxGraphModel>
  </diagram>
</mxfile>
